<mxfile host="app.diagrams.net" modified="2023-10-16T15:27:50.546Z" agent="Mozilla/5.0 (X11; Linux x86_64; rv:109.0) Gecko/20100101 Firefox/115.0" etag="VSndsunGOS8U8256-uwO" version="21.7.5" type="github">
  <diagram name="Page-1" id="zVYzukVy8XgZcWH6YYEZ">
    <mxGraphModel dx="847" dy="793" grid="1" gridSize="10" guides="1" tooltips="1" connect="1" arrows="1" fold="1" page="1" pageScale="1" pageWidth="850" pageHeight="1100" math="0" shadow="0">
      <root>
        <mxCell id="0" />
        <mxCell id="1" parent="0" />
        <mxCell id="6vjLHSTCWr16vqxmGMeG-8" style="edgeStyle=orthogonalEdgeStyle;rounded=0;orthogonalLoop=1;jettySize=auto;html=1;" edge="1" parent="1" source="6vjLHSTCWr16vqxmGMeG-1" target="6vjLHSTCWr16vqxmGMeG-7">
          <mxGeometry relative="1" as="geometry" />
        </mxCell>
        <mxCell id="6vjLHSTCWr16vqxmGMeG-9" value="- Submit App&lt;br&gt;- Test App" style="edgeLabel;html=1;align=center;verticalAlign=middle;resizable=0;points=[];" vertex="1" connectable="0" parent="6vjLHSTCWr16vqxmGMeG-8">
          <mxGeometry x="-0.3044" y="2" relative="1" as="geometry">
            <mxPoint x="3" y="2" as="offset" />
          </mxGeometry>
        </mxCell>
        <mxCell id="6vjLHSTCWr16vqxmGMeG-1" value="Dev" style="shape=umlActor;verticalLabelPosition=bottom;verticalAlign=top;html=1;outlineConnect=0;" vertex="1" parent="1">
          <mxGeometry x="80" y="110" width="30" height="60" as="geometry" />
        </mxCell>
        <mxCell id="6vjLHSTCWr16vqxmGMeG-16" style="edgeStyle=orthogonalEdgeStyle;rounded=0;orthogonalLoop=1;jettySize=auto;html=1;" edge="1" parent="1" source="6vjLHSTCWr16vqxmGMeG-2" target="6vjLHSTCWr16vqxmGMeG-7">
          <mxGeometry relative="1" as="geometry">
            <Array as="points">
              <mxPoint x="310" y="310" />
            </Array>
          </mxGeometry>
        </mxCell>
        <mxCell id="6vjLHSTCWr16vqxmGMeG-25" value="- Submit Exploit&lt;br&gt;- Test Explot" style="edgeLabel;html=1;align=center;verticalAlign=middle;resizable=0;points=[];" vertex="1" connectable="0" parent="6vjLHSTCWr16vqxmGMeG-16">
          <mxGeometry x="0.1687" y="-2" relative="1" as="geometry">
            <mxPoint x="-40" y="-2" as="offset" />
          </mxGeometry>
        </mxCell>
        <mxCell id="6vjLHSTCWr16vqxmGMeG-2" value="Hacker" style="shape=umlActor;verticalLabelPosition=bottom;verticalAlign=top;html=1;outlineConnect=0;" vertex="1" parent="1">
          <mxGeometry x="80" y="280" width="30" height="60" as="geometry" />
        </mxCell>
        <mxCell id="6vjLHSTCWr16vqxmGMeG-7" value="Bugless" style="whiteSpace=wrap;html=1;aspect=fixed;" vertex="1" parent="1">
          <mxGeometry x="270" y="190" width="80" height="80" as="geometry" />
        </mxCell>
        <mxCell id="6vjLHSTCWr16vqxmGMeG-26" value="./exploit/start.sh |./code/start.sh&lt;br&gt;if [[ $? -nq 0 ]]; then break; fi&lt;br&gt; " style="rounded=0;whiteSpace=wrap;html=1;" vertex="1" parent="1">
          <mxGeometry x="340" y="880" width="270" height="130" as="geometry" />
        </mxCell>
        <mxCell id="6vjLHSTCWr16vqxmGMeG-32" value="&lt;div&gt;# code/start.sh&lt;/div&gt;&lt;div&gt;&lt;br&gt;&lt;/div&gt;&lt;div&gt;lua start.lua&lt;/div&gt;&lt;div&gt;&lt;br&gt;&lt;/div&gt;&lt;div&gt;# code/start.lua&lt;/div&gt;&lt;div&gt;&lt;br&gt;&lt;/div&gt;&lt;div&gt;_G.os = nil&lt;/div&gt;&lt;div&gt;input = io.read()&lt;/div&gt;&lt;div&gt;exec(input)&lt;br&gt;&lt;/div&gt;" style="whiteSpace=wrap;html=1;aspect=fixed;align=left;fontFamily=Courier New;" vertex="1" parent="1">
          <mxGeometry x="40" y="670" width="250" height="250" as="geometry" />
        </mxCell>
        <mxCell id="6vjLHSTCWr16vqxmGMeG-33" value="# exploit/start.sh&lt;br&gt;&lt;div&gt;&lt;br&gt;&lt;/div&gt;&lt;div&gt;echo&quot;&lt;/div&gt;&lt;div&gt;os.exit(1)&lt;/div&gt;&lt;div&gt;&quot;&lt;br&gt;&lt;/div&gt;" style="whiteSpace=wrap;html=1;aspect=fixed;align=left;fontFamily=Courier New;" vertex="1" parent="1">
          <mxGeometry x="40" y="920" width="250" height="250" as="geometry" />
        </mxCell>
        <mxCell id="6vjLHSTCWr16vqxmGMeG-45" value="" style="edgeStyle=orthogonalEdgeStyle;rounded=0;orthogonalLoop=1;jettySize=auto;html=1;" edge="1" parent="1" source="6vjLHSTCWr16vqxmGMeG-43" target="6vjLHSTCWr16vqxmGMeG-7">
          <mxGeometry relative="1" as="geometry" />
        </mxCell>
        <mxCell id="6vjLHSTCWr16vqxmGMeG-48" value="- Sponsor App&lt;br&gt;- Withdraw Bounty&lt;br&gt; " style="edgeLabel;html=1;align=center;verticalAlign=middle;resizable=0;points=[];" vertex="1" connectable="0" parent="6vjLHSTCWr16vqxmGMeG-45">
          <mxGeometry x="0.1359" y="2" relative="1" as="geometry">
            <mxPoint x="8" y="-2" as="offset" />
          </mxGeometry>
        </mxCell>
        <mxCell id="6vjLHSTCWr16vqxmGMeG-43" value="Sponsor" style="shape=umlActor;verticalLabelPosition=bottom;verticalAlign=top;html=1;outlineConnect=0;" vertex="1" parent="1">
          <mxGeometry x="565" y="200" width="30" height="60" as="geometry" />
        </mxCell>
        <mxCell id="6vjLHSTCWr16vqxmGMeG-68" style="edgeStyle=orthogonalEdgeStyle;rounded=0;orthogonalLoop=1;jettySize=auto;html=1;" edge="1" parent="1" source="6vjLHSTCWr16vqxmGMeG-66" target="6vjLHSTCWr16vqxmGMeG-67">
          <mxGeometry relative="1" as="geometry" />
        </mxCell>
        <mxCell id="6vjLHSTCWr16vqxmGMeG-69" value="1" style="edgeLabel;html=1;align=center;verticalAlign=middle;resizable=0;points=[];" vertex="1" connectable="0" parent="6vjLHSTCWr16vqxmGMeG-68">
          <mxGeometry x="-0.7425" y="3" relative="1" as="geometry">
            <mxPoint x="-8" y="-7" as="offset" />
          </mxGeometry>
        </mxCell>
        <mxCell id="6vjLHSTCWr16vqxmGMeG-70" value="N" style="edgeLabel;html=1;align=center;verticalAlign=middle;resizable=0;points=[];" vertex="1" connectable="0" parent="6vjLHSTCWr16vqxmGMeG-68">
          <mxGeometry x="0.5563" y="-4" relative="1" as="geometry">
            <mxPoint x="18" y="-14" as="offset" />
          </mxGeometry>
        </mxCell>
        <mxCell id="6vjLHSTCWr16vqxmGMeG-66" value="&lt;p style=&quot;margin:0px;margin-top:4px;text-align:center;text-decoration:underline;&quot;&gt;&lt;b&gt;App&lt;/b&gt;&lt;/p&gt;&lt;hr&gt;&lt;p style=&quot;margin:0px;margin-left:8px;&quot;&gt;- address&lt;/p&gt;&lt;p style=&quot;margin:0px;margin-left:8px;&quot;&gt;- name&lt;/p&gt;&lt;p style=&quot;margin:0px;margin-left:8px;&quot;&gt;- description&lt;br&gt;&lt;/p&gt;&lt;p style=&quot;margin:0px;margin-left:8px;&quot;&gt;- codeLocation (dir)&lt;br&gt;- deadLine&lt;/p&gt;&lt;p style=&quot;margin:0px;margin-left:8px;&quot;&gt;- valid/broken&lt;br&gt;&lt;/p&gt;" style="verticalAlign=top;align=left;overflow=fill;fontSize=12;fontFamily=Helvetica;html=1;whiteSpace=wrap;" vertex="1" parent="1">
          <mxGeometry x="320" y="440" width="160" height="140" as="geometry" />
        </mxCell>
        <mxCell id="6vjLHSTCWr16vqxmGMeG-67" value="&lt;p style=&quot;margin:0px;margin-top:4px;text-align:center;text-decoration:underline;&quot;&gt;&lt;b&gt;Sponsorship&lt;/b&gt;&lt;/p&gt;&lt;hr&gt;&lt;p style=&quot;margin:0px;margin-left:8px;&quot;&gt;- sponsorAddress&lt;br&gt;- value&lt;br&gt;&lt;/p&gt;" style="verticalAlign=top;align=left;overflow=fill;fontSize=12;fontFamily=Helvetica;html=1;whiteSpace=wrap;" vertex="1" parent="1">
          <mxGeometry x="600" y="455" width="160" height="110" as="geometry" />
        </mxCell>
        <mxCell id="6vjLHSTCWr16vqxmGMeG-72" style="edgeStyle=orthogonalEdgeStyle;rounded=0;orthogonalLoop=1;jettySize=auto;html=1;entryX=0;entryY=0.5;entryDx=0;entryDy=0;" edge="1" parent="1" source="6vjLHSTCWr16vqxmGMeG-71" target="6vjLHSTCWr16vqxmGMeG-66">
          <mxGeometry relative="1" as="geometry" />
        </mxCell>
        <mxCell id="6vjLHSTCWr16vqxmGMeG-73" value="1" style="edgeLabel;html=1;align=center;verticalAlign=middle;resizable=0;points=[];" vertex="1" connectable="0" parent="6vjLHSTCWr16vqxmGMeG-72">
          <mxGeometry x="-0.1103" y="-2" relative="1" as="geometry">
            <mxPoint x="-48" y="-12" as="offset" />
          </mxGeometry>
        </mxCell>
        <mxCell id="6vjLHSTCWr16vqxmGMeG-74" value="N" style="edgeLabel;html=1;align=center;verticalAlign=middle;resizable=0;points=[];" vertex="1" connectable="0" parent="6vjLHSTCWr16vqxmGMeG-72">
          <mxGeometry x="0.3671" relative="1" as="geometry">
            <mxPoint x="28" y="-10" as="offset" />
          </mxGeometry>
        </mxCell>
        <mxCell id="6vjLHSTCWr16vqxmGMeG-71" value="&lt;p style=&quot;margin:0px;margin-top:4px;text-align:center;text-decoration:underline;&quot;&gt;&lt;b&gt;Bugless State&lt;br&gt;&lt;/b&gt;&lt;/p&gt;&lt;hr&gt;&amp;nbsp;" style="verticalAlign=top;align=left;overflow=fill;fontSize=12;fontFamily=Helvetica;html=1;whiteSpace=wrap;" vertex="1" parent="1">
          <mxGeometry x="40" y="455" width="160" height="110" as="geometry" />
        </mxCell>
      </root>
    </mxGraphModel>
  </diagram>
</mxfile>
